<svg xmlns="http://www.w3.org/2000/svg" xmlns:xlink="http://www.w3.org/1999/xlink" width="283.4639892578125" height="283.4649963378906" viewBox="0 0 283.4639892578125 283.4649963378906" fill="none">
<path d="M265.772 147.485C264.831 146.124 263.439 145.364 261.595 145.203C260.604 145.115 259.614 145.244 258.624 145.588C258.106 145.794 257.449 146.33 256.654 147.196C256.453 147.43 256.21 147.814 255.923 148.346C255.589 148.965 255.384 149.368 255.308 149.56L254.679 150.908L254.042 152.362L253.747 152.984C253.53 153.414 253.32 153.756 253.118 154.008C252.724 154.62 252.121 154.891 251.308 154.821C250.554 154.754 249.994 154.363 249.628 153.647C249.26 152.931 249.123 152.047 249.216 150.994C249.327 149.727 249.708 148.466 250.358 147.21C251.026 145.973 251.771 144.995 252.593 144.276L248.132 143.884C246.475 145.682 245.523 147.99 245.275 150.809C245.087 152.952 245.506 154.778 246.533 156.289C247.559 157.8 249.073 158.644 251.077 158.819C253 158.989 254.503 158.491 255.584 157.327C256.598 156.246 257.441 154.954 258.113 153.448C258.337 152.946 258.615 152.287 258.946 151.471C259.18 150.862 259.433 150.372 259.705 150.001C260.12 149.371 260.625 149.083 261.22 149.136C262.588 149.255 263.179 150.377 262.993 152.501C262.805 154.642 261.972 156.611 260.496 158.406L264.66 158.772C265.976 156.981 266.731 154.987 266.924 152.792C267.115 150.615 266.731 148.845 265.772 147.485ZM108.803 39.5025C111.105 41.1012 113.621 41.559 116.349 40.8754C119.061 40.1967 121.055 38.6098 122.333 36.1138C123.623 33.5963 123.903 30.8778 123.172 27.9615C122.438 25.0261 120.909 22.7617 118.589 21.1675C116.286 19.5692 113.78 19.109 111.068 19.7877C108.339 20.4713 106.336 22.0611 105.059 24.5562C103.772 27.0131 103.501 29.7283 104.246 32.702C104.981 35.6374 106.499 37.9042 108.803 39.5025ZM108.478 26.5932C109.241 25.0685 110.431 24.103 112.048 23.6989C113.647 23.2985 115.141 23.5915 116.534 24.5758C117.926 25.5617 118.862 27.0095 119.34 28.9211C119.819 30.8331 119.677 32.5519 118.914 34.0774C118.151 35.6021 116.969 36.5644 115.37 36.9656C113.754 37.3697 112.25 37.0803 110.858 36.0944C109.488 35.1239 108.562 33.6737 108.078 31.7422C107.594 29.8115 107.728 28.0947 108.478 26.5933L108.478 26.5932ZM70.748 64.9318L69.098 60.0209L75.232 54.9562L79.742 57.5062L82.913 54.889L63.312 43.8099L60.452 46.1699L67.618 67.5151L70.748 64.9317L70.748 64.9318ZM72.017 53.0035L67.768 56.5102L65.284 49.153L72.017 53.0035ZM44.788 102.591L36.436 98.8103L39.939 91.0744L48.29 94.8561L49.876 91.3539L30.834 82.7333L29.249 86.2331L36.376 89.4606L32.873 97.1968L25.746 93.9699L24.149 97.4953L43.191 106.117L44.788 102.591ZM28.454 120.981C31.503 121.752 34.268 121.451 36.75 120.082C39.192 118.702 40.771 116.598 41.485 113.766C41.985 111.786 41.929 109.933 41.319 108.208L37.12 107.147C37.959 108.782 38.127 110.599 37.622 112.596C37.167 114.404 36.173 115.733 34.645 116.584C33.092 117.449 31.35 117.638 29.421 117.15C27.491 116.663 26.053 115.69 25.107 114.232C24.15 112.734 23.889 111.124 24.323 109.405C24.775 107.616 25.7 106.15 27.097 105.006L22.899 103.945C21.685 105.173 20.855 106.672 20.408 108.444C19.688 111.293 20.076 113.904 21.571 116.278C23.071 118.633 25.365 120.201 28.454 120.981ZM93.078 49.2238L87.337 37.0733L101.729 45.1369L104.62 43.7709L95.691 24.8708L92.289 26.4777L98.004 38.5732L83.711 30.5304L80.722 31.9428L89.652 50.8425L93.078 49.2238ZM54.239 84.6675L36.538 73.5499L34.494 76.8043L52.195 87.9219L54.239 84.6675ZM243.456 165.199L263.913 169.496L264.703 165.735L244.246 161.438L243.456 165.199ZM131.88 37.7309L131.407 29.2934L134.654 29.1115L140.601 37.2418L145.082 36.9903L138.786 28.401C139.98 27.9164 140.892 27.1416 141.524 26.0792C142.155 25.0172 142.432 23.7908 142.353 22.4C142.252 20.5706 141.587 19.1224 140.361 18.0547C139.151 16.9658 137.544 16.4771 135.541 16.5894L126.847 17.0765L128.017 37.9469L131.88 37.7308L131.88 37.7309ZM135.537 20.3591C136.413 20.3103 137.11 20.495 137.627 20.9145C138.144 21.3344 138.425 21.9423 138.47 22.737C138.515 23.5516 138.304 24.1921 137.836 24.6559C137.369 25.121 136.697 25.3773 135.821 25.4266L131.205 25.6854L130.922 20.6179L135.537 20.3591ZM58.75 78.1728L48.452 69.54L64.897 70.8405L66.951 68.3901L50.932 54.9611L48.515 57.8444L58.767 66.4382L42.42 65.115L40.296 67.6484L56.316 81.0769L58.75 78.1728ZM20.229 140.563L37.273 141.016L37.376 137.147L20.331 136.695L20.489 130.73L16.639 130.629L16.22 146.399L20.072 146.501L20.229 140.563ZM232.553 90.2718L250.538 79.6187L248.579 76.3124L230.594 86.9655L232.553 90.2718ZM220.676 73.3343L231.198 64.977L226.627 80.8266L228.616 83.3309L244.984 70.3298L242.643 67.383L232.168 75.7045L236.743 59.9542L234.687 57.3659L218.319 70.3676L220.676 73.3343ZM238.132 101.98L260.562 100.865L258.895 97.0193L242.894 97.9519L254.521 86.9338L252.821 83.0135L236.678 98.6263L238.132 101.98ZM152.107 23.3742L155.59 30.6158L157.721 30.8998L162.897 24.8101L161.009 38.9894L164.792 39.4927L167.551 18.7725L163.768 18.2692L157.217 26.133L152.952 16.8288L149.143 16.3214L146.384 37.0412L150.22 37.5527L152.107 23.3742ZM245.468 129.684L253.894 129.03L254.146 132.272L246.144 138.393L246.492 142.867L254.944 136.388C255.455 137.571 256.248 138.465 257.324 139.075C258.4 139.682 259.632 139.933 261.022 139.825C262.848 139.683 264.281 138.988 265.323 137.739C266.384 136.506 266.839 134.889 266.683 132.889L266.009 124.207L245.169 125.826L245.468 129.684ZM262.557 128.357L262.916 132.966C262.983 133.84 262.813 134.541 262.405 135.067C261.996 135.593 261.395 135.887 260.601 135.949C259.787 136.012 259.143 135.815 258.669 135.358C258.193 134.9 257.922 134.234 257.854 133.358L257.496 128.751L262.557 128.357ZM244.773 123.477L248.509 122.535L246.003 112.607L251.215 111.291L253.174 119.057L256.852 118.129L254.892 110.364L258.801 109.377L261.234 119.019L264.969 118.077L261.589 104.682L241.322 109.796L244.774 123.477L244.773 123.477ZM209.796 63.1744C211.583 64.7247 213.572 65.3847 215.765 65.1532C217.972 64.9335 220.028 63.727 221.934 61.531L229.881 52.3757L226.958 49.8383L218.913 59.1067C217.857 60.325 216.756 61.011 215.615 61.166C214.471 61.321 213.412 60.9756 212.439 60.13C211.478 59.2959 210.994 58.3026 210.986 57.149C210.979 55.9962 211.503 54.8114 212.56 53.5931L220.605 44.3243L217.703 41.8056L209.756 50.9613C207.851 53.1569 206.938 55.3566 207.018 57.5604C207.098 59.7646 208.024 61.6359 209.796 63.1744ZM169.654 40.9658L172.962 36.979L180.497 39.5303L180.701 44.7077L184.596 46.0269L183.703 23.5293L180.19 22.3391L165.811 39.6645L169.654 40.9658ZM180.197 28.0157L180.466 35.768L175.247 34.0008L180.197 28.0157ZM141.733 0C63.463 0.1385 0.142029 63.4597 0 141.731C0.142029 220.016 63.463 283.317 141.733 283.465C220.008 283.317 283.32 220.016 283.464 141.731C283.32 63.4597 220.008 0.13861 141.733 1.00136e-05L141.733 0ZM141.733 278.014C66.475 277.872 5.58902 217.005 5.44901 141.731C5.58902 66.4686 66.475 5.58339 141.733 5.45098C217 5.58338 277.872 66.4687 278.012 141.731C277.872 217.005 217 277.872 141.733 278.014ZM199.189 49.717L190.777 45.2167L198.82 30.1825L195.408 28.3571L185.547 46.7873L197.372 53.1134L199.189 49.717ZM43.367 177.411L38.2 177.025L35.912 169.406L40.013 166.239L38.831 162.301L21.014 176.067L22.08 179.62L44.533 181.296L43.367 177.411ZM26.703 176.323L32.865 171.612L34.449 176.888L26.703 176.323ZM172.471 256.73C171.561 256.753 171.453 257.878 171.368 258.783L171.283 259.472C171.016 260.82 168.681 262.21 166.619 262.835L166.063 263.016C165.071 263.343 164.288 263.603 163.157 263.05C162.662 262.81 162.259 261.804 162.261 260.81C162.261 260.023 162.519 259.446 162.967 259.228C163.161 259.133 163.211 259.201 163.294 259.312C163.489 259.574 163.739 259.739 164.784 259.086C164.875 259.031 164.922 258.793 165.001 258.343C165.063 257.971 165.137 257.549 165.257 257.293L165.663 256.54L165.937 256.015C166.132 255.163 165.896 254.339 165.286 253.756C164.607 253.105 163.59 252.886 162.563 253.17C161.046 253.591 159.609 254.666 158.342 255.616C157.047 256.584 155.931 257.421 154.985 257.43C154.648 257.434 154.401 257.261 154.186 257.111C153.982 256.968 153.79 256.831 153.572 256.896C153.262 256.985 152.945 257.471 152.508 258.517C152.42 258.729 152.387 259.123 152.349 259.581C152.288 260.32 152.212 261.239 151.852 261.492C151.755 261.559 151.641 261.576 151.506 261.541C151.364 261.504 151.267 261.423 151.211 261.292C150.962 260.729 151.569 259.512 151.574 259.499C151.579 259.489 151.747 258.44 151.747 258.44C151.778 258.116 151.808 257.809 151.903 257.561C152.464 256.106 153.783 255.803 155.177 255.484C155.9 255.316 156.961 254.426 157.137 254.181C157.481 253.696 156.973 253.17 156.565 252.747L156.491 252.67C155.815 251.963 155.148 251.791 154.45 252.146C153.87 252.442 153.155 253.193 152.327 254.062C151.7 254.722 151.049 255.404 150.376 255.972L150.14 256.167C148.753 257.302 147.167 258.694 147.243 259.397C147.256 259.534 147.333 259.639 147.469 259.709C148.034 259.997 148.59 259.388 149.08 258.848C149.454 258.437 149.808 258.047 150.046 258.22C150.129 258.28 150.174 258.343 150.187 258.423C150.21 258.58 150.115 258.799 149.891 259.095L149.788 259.229C149.518 259.574 149.265 259.899 149.137 260.874C148.959 262.238 149.234 262.544 149.695 263.051L150.164 263.615C150.372 263.902 150.384 264.36 150.393 264.662L150.441 265C150.756 265.365 151.002 265.338 151.183 265.316C151.326 265.299 151.415 265.289 151.512 265.452C151.738 265.828 151.614 266.747 151.428 266.859C151.417 266.865 151.379 266.888 151.313 266.783C151.149 266.521 150.655 266.599 150.469 266.628C149.963 266.703 149.805 267.118 149.666 267.485L149.556 267.748C148.926 269.064 149.61 269.734 150.364 270.215C150.812 270.504 151.198 270.751 152.019 270.34C152.72 269.988 152.84 268.818 152.962 267.578L153.005 267.176C153.126 266.017 153.325 265.033 153.551 264.47C153.824 263.786 153.766 263.258 153.718 262.832L153.706 262.225C153.857 261.462 154.285 261.171 154.826 260.801C155.109 260.608 155.431 260.389 155.747 260.072L156.475 259.322C157.36 258.399 158.06 257.669 159.294 257C159.702 256.78 160.118 256.432 160.523 256.101C161.072 255.642 161.643 255.17 162.216 254.982L162.335 254.942C162.842 254.773 163.785 254.457 164.108 254.786C164.208 254.885 164.509 255.714 164.34 256.109C164.282 256.249 164.17 256.315 164 256.311C163.714 256.303 163.679 256.138 163.647 255.871C163.625 255.694 163.604 255.509 163.447 255.417C163.166 255.249 162.264 255.394 162.254 255.396C161.912 255.455 161.649 255.848 161.346 256.303C161.127 256.631 160.879 257.005 160.568 257.29C159.417 258.349 159.164 260.275 159.515 261.634C159.917 263.195 160.743 263.778 161.237 264.126L161.535 264.359C162.703 265.595 164.321 266.555 168.229 265.229C170.796 264.356 172.786 262.874 173.687 261.164C174.1 260.379 174.041 258.342 173.416 257.331C173.162 256.923 172.843 256.722 172.471 256.729L172.471 256.73ZM134.972 251.214C133.61 250.597 131.354 251.905 130.768 251.113C130.525 250.784 131.1 250.135 131.192 249.672C131.338 248.92 130.904 248.253 130.307 248.097C129.919 247.995 129.931 247.496 130.389 247.458C131.044 247.405 131.363 247.478 132.03 247.545C133.289 247.671 134.016 247.6 134.797 246.485C135.035 246.146 134.924 245.391 134.415 245.013C133.764 244.526 131.684 244.451 129.502 244.488C127.149 244.526 124.674 244.453 124.173 245.303C123.932 245.717 123.434 246.193 123.168 246.722C122.778 247.49 122.554 248.192 122.111 248.495C120.719 249.454 120.311 251.441 120.046 250.764C119.864 250.304 119.181 250.335 118.771 250.239C118.58 250.193 118.607 249.667 118.825 249.471C119.042 249.277 119.073 249.458 119.386 249.332C120.242 248.991 121.286 248.081 121.46 247.436C121.895 245.819 122.551 244.592 121.831 243.654C121.213 242.846 120.14 242.491 119.035 242.417C118.455 242.377 117.508 242.459 116.901 242.716C115.858 243.154 115.495 244.45 114.86 246.013C114.6 246.651 114.002 247.45 113.724 248.449C113.375 249.718 112.935 251.492 112.729 252.404C112.272 254.461 112.178 255.901 112.652 257.356C112.9 258.118 112.645 259.188 113.724 259.252C114.618 259.303 114.199 255.993 114.481 254.483C114.595 253.865 114.743 253.277 115.234 253.014C115.389 252.932 115.527 252.641 115.801 252.779C116.075 252.916 115.608 253.809 116.05 253.815C116.833 253.827 117.248 252.869 117.866 253.232C118.349 253.517 117.632 254.344 117.01 254.871C115.787 255.906 115.215 257.84 116.896 258.305C117.609 258.503 118.461 257.528 118.819 256.544C119.099 255.775 119.023 255.278 119.304 254.676C119.531 254.202 119.949 254.101 120.275 253.528C120.585 252.979 120.827 252.341 121.291 251.692C121.829 250.944 122.602 250.184 123.108 249.579C123.681 248.905 124.17 248.244 124.8 247.858C125.427 247.473 126.348 247.223 126.9 247.605C127.296 247.879 125.653 248.824 124.659 249.743C123.269 251.024 122.466 252.665 122.15 254.777C122.023 255.631 121.56 257.98 122.124 258.489C122.532 258.859 122.889 259.003 123.423 258.949C124.737 258.817 124.268 256.343 125.032 255.302C125.198 255.077 125.351 254.655 125.735 254.865C126.116 255.076 125.063 260.015 124.399 262.917C123.941 264.9 123.86 266.553 123.725 268.125C123.668 268.781 123.642 269.407 124.603 269.594C125.964 269.859 126.49 266.944 126.81 265.139C127.077 263.638 127.584 261.411 128.23 260.645C128.946 259.801 130.644 259.257 131.686 259.026C132.752 258.794 133.641 257.536 134.249 257.042C135.068 256.377 135.801 254.11 135.972 253.297C136.21 252.178 135.859 251.616 134.972 251.215L134.972 251.214ZM117.897 249.961C116.499 250.361 116.139 251.417 115.92 252.002C115.817 252.278 115.471 252.185 115.423 251.907C115.312 251.268 115.334 250.144 115.871 249.309C116.589 248.185 116.874 247.274 117.445 246.551C118.166 245.638 119.112 245.262 119.322 245.507C119.723 245.976 118.76 246.514 118.721 246.966C118.614 248.273 118.386 248.276 118.023 248.884C117.767 249.32 118.614 249.756 117.897 249.961ZM126.824 251.083C126.277 251.941 125.569 252.297 125.194 251.888C124.916 251.588 126.329 250.307 126.956 249.492C127.744 248.47 127.908 248.645 128.179 248.869C128.486 249.124 127.57 249.916 126.824 251.083ZM131.623 256.379C130.832 256.885 130.382 257.11 129.872 257.032C129.601 256.992 129.061 256.354 129.212 256.055C129.589 255.295 129.339 254.99 129.526 254.568C129.829 253.877 130.84 254.127 131.473 254.131C132.322 254.134 132.854 253.814 132.919 254.429C132.919 254.429 132.664 255.708 131.623 256.379ZM97.996 235.533C97.691 234.985 98.737 233.669 97.193 233.66C96.979 233.656 96.087 233.536 95.821 233.69C95.552 233.844 95.094 234.874 94.98 234.829C94.232 234.539 93.036 233.971 91.311 233.535C89.679 233.126 88.765 231.955 87.461 232.357C86.912 232.523 86.469 232.566 85.983 232.903C85.146 233.481 85.341 234.753 86.301 235.344C86.714 235.596 89.543 235.162 90.646 235.406C91.926 235.69 93.233 236.049 93.351 236.589C93.405 236.854 93.091 237.304 92.573 237.674C90.689 239.015 89.708 238.367 88.688 238.375C88.462 238.377 88.535 237.943 88.904 237.74C89.392 237.473 90.325 237.385 90.359 237.202C90.401 236.971 88.914 236.456 87.53 236.362C86.997 236.328 86.57 236.429 86.117 236.522C84.776 236.797 82.807 238.981 82.033 241.331C81.391 243.276 80.512 244.752 81.514 245.604C82.711 246.622 83.391 245.31 84.24 243.128C84.724 241.885 85.877 241.212 86.499 240.863C86.748 240.722 87.647 239.476 89.273 240.545C89.343 240.59 89.223 241.017 88.739 241.002C88.11 240.984 87.282 241.339 87.126 241.708C86.935 242.154 87.166 242.742 87.093 243.36C87.016 243.98 85.814 243.832 86.644 245.069C86.709 245.166 85.925 245.458 85.635 245.272C85.499 245.184 85.576 244.92 85.432 244.86C84.984 244.68 84.247 245.725 84.131 245.828C83.471 246.43 82.479 246.649 81.436 246.922C79.663 247.383 77.263 248.219 75.902 248.81C74.295 249.519 74.558 250.704 76.286 251.511C77.058 251.873 79.229 250.938 80.301 250.537C81.058 250.255 82.662 249.699 83.355 249.888C84.097 250.089 80.942 253.764 81.004 254.333C81.111 255.314 82.531 256.417 83.192 255.214C83.493 254.667 83.766 253.927 84.18 253.083C84.502 252.43 85.076 251.75 85.41 251.178C85.89 250.361 86.344 249.554 86.573 249.634C87.097 249.818 87 250.689 87.465 251.891C88.562 254.718 91.607 257.808 94.196 259.071C95.745 259.826 96.966 259.14 96.31 257.114C96.161 256.654 96.044 256.336 95.951 256.111C95.635 255.349 95.634 256.171 94.158 255.076C93.739 254.764 92.031 252.966 91.103 252.175C90.658 251.793 89.972 250.79 89.552 249.822C89.281 249.201 88.521 248.884 89.829 248.252C90.619 247.872 90.069 246.951 90.741 246.83C91.311 246.729 92.392 246.77 93.122 246.608C94.004 246.413 95.127 245.763 96.508 245.272C97.796 244.813 99.619 242.305 98.902 241.289C98.414 240.593 97.415 240.265 96.172 239.503C95.542 239.115 94.169 239.89 94.854 238.924C95.323 238.256 95.396 237.937 96.12 237.911C97.259 237.871 100.589 239.69 101.031 237.769C101.386 236.221 98.648 236.71 97.996 235.534L97.996 235.533ZM95.299 242.505C95.152 243.669 93.46 244.48 92.269 244.761C91.822 244.865 91.294 245.261 91.023 245.323C90.302 245.492 90.38 245.137 91.068 244.439C91.452 244.048 92.301 243.179 91.762 242.56C91.235 241.954 92.138 240.428 92.634 240.882C93.544 241.715 95.336 242.218 95.299 242.505ZM23.692 163.47C24.681 163.35 25.623 163.019 26.519 162.476C26.983 162.167 27.514 161.507 28.112 160.495C28.26 160.224 28.419 159.8 28.589 159.219C28.788 158.545 28.905 158.107 28.94 157.904L29.275 156.455L29.597 154.9L29.756 154.23C29.88 153.764 30.015 153.387 30.16 153.098C30.418 152.417 30.952 152.027 31.761 151.928C32.513 151.836 33.141 152.103 33.649 152.727C34.157 153.351 34.474 154.188 34.601 155.237C34.756 156.5 34.644 157.813 34.269 159.176C33.872 160.524 33.346 161.635 32.69 162.509L37.137 161.967C38.385 159.866 38.838 157.411 38.495 154.601C38.235 152.466 37.446 150.766 36.128 149.5C34.812 148.236 33.155 147.724 31.159 147.967C29.242 148.202 27.875 148.999 27.059 150.363C26.291 151.629 25.733 153.069 25.389 154.681C25.274 155.219 25.139 155.921 24.984 156.789C24.882 157.432 24.736 157.965 24.547 158.385C24.272 159.085 23.837 159.472 23.244 159.544C21.88 159.711 21.07 158.736 20.812 156.62C20.552 154.485 20.958 152.387 22.03 150.325L17.88 150.831C16.964 152.856 16.639 154.963 16.906 157.15C17.17 159.319 17.913 160.971 19.134 162.103C20.335 163.24 21.855 163.694 23.692 163.47ZM208.617 244.402C207.735 243.186 205.834 243.569 203.76 244.77C202.558 245.466 201.087 245.618 200.188 245.806C197.466 246.376 195.319 245.386 194.634 245.544C193.948 245.701 194.24 247.404 194.762 248.226C196.252 250.58 200.907 249.863 203.667 249.075C204.731 248.771 205.885 247.734 206.812 247.172C207.793 246.575 208.766 246.408 208.717 245.738C208.667 245.07 208.996 244.925 208.617 244.402ZM141.733 45.7912C88.751 45.8852 45.885 88.7465 45.789 141.731C45.885 194.725 88.751 237.574 141.733 237.673C194.717 237.574 237.572 194.725 237.672 141.731C237.572 88.7465 194.717 45.8852 141.733 45.7912ZM141.733 234.403C90.557 234.307 49.154 192.919 49.06 141.731C49.154 90.5544 90.557 49.1519 141.733 49.0627C192.912 49.1518 234.306 90.5544 234.401 141.731C234.306 192.919 192.912 234.307 141.733 234.403ZM154.064 247.202C154.383 246.487 154.853 246.043 155.27 245.652C155.523 245.412 155.742 245.206 155.879 244.975C156.125 244.573 156.114 244.136 155.846 243.782C155.554 243.396 155.032 243.213 154.577 243.338C153.733 243.569 152.515 245.091 151.945 245.995C151.601 246.542 151.368 247.119 151.142 247.678C150.895 248.292 150.66 248.871 150.297 249.393C149.913 249.944 150.178 250.738 150.608 251.283C151.003 251.779 151.71 252.259 152.404 251.984C152.552 251.923 152.624 251.757 152.705 251.565C152.848 251.236 153.027 250.823 153.68 250.715C153.989 250.665 154.211 250.874 154.467 251.114C154.777 251.404 155.129 251.735 155.704 251.587C156.284 251.44 156.707 250.688 157.081 250.026L157.365 249.541C157.86 248.76 160.229 245.962 161.133 245.625C161.566 245.463 161.837 245.428 161.986 245.518C162.153 245.617 162.19 245.88 162.241 246.247L162.285 246.559C162.338 246.879 162.573 247.028 162.78 247.156C162.962 247.27 163.122 247.37 163.118 247.565C163.115 248.013 162.758 248.274 162.381 248.549C162.011 248.822 161.627 249.103 161.589 249.584C161.541 250.172 161.704 250.68 162.025 250.94C162.272 251.142 162.601 251.19 162.977 251.082C163.503 250.928 163.741 250.357 163.994 249.754C164.151 249.378 164.313 248.988 164.555 248.661C164.909 248.182 165.273 248.078 165.661 247.968C165.992 247.875 166.334 247.777 166.65 247.421C166.937 247.096 167.054 246.714 166.98 246.346C166.888 245.9 166.527 245.509 165.966 245.245C165.183 244.877 164.81 245.364 164.563 245.688C164.475 245.803 164.392 245.914 164.332 245.917L164.267 245.881C163.825 245.436 164.061 244.926 164.314 244.389C164.435 244.13 164.559 243.861 164.61 243.594C164.676 243.233 164.608 242.955 164.411 242.792C164.121 242.546 163.579 242.57 162.799 242.86C162.466 242.984 162.201 243.28 161.92 243.597C161.648 243.9 161.366 244.215 160.998 244.4C160.01 244.893 159.351 245.478 158.821 245.948C158.435 246.292 158.13 246.561 157.835 246.666C157.624 246.742 157.234 246.775 156.819 246.809C156.09 246.873 155.263 246.942 154.967 247.264L154.505 247.953C154.304 248.295 154.096 248.649 153.916 248.687L153.791 248.656C153.492 248.442 153.736 247.915 153.971 247.403L154.065 247.202L154.064 247.202ZM198.131 239.933C198.808 238.761 198.933 237.402 197.651 237.187C197.178 237.109 196.976 237.016 196.169 237.47C194.793 238.236 195.332 238.869 194.413 239.421C194.016 239.66 193.629 237.907 194.329 237.315C195.798 236.075 197.244 234.209 196.75 232.588C196.348 231.257 195.621 230.157 193.866 231.722C192.95 232.54 191.779 233.735 191.105 235.667C190.241 238.15 189.731 240.915 188.518 242.581C187.736 243.658 187.617 243.009 186.695 243.8C184.127 246.007 182.722 248.046 183.959 249.371C184.819 250.29 186.035 250.035 186.694 249.842C187.503 249.603 187.988 248.938 188.124 249.39C188.26 249.841 187.565 251.761 187.226 253.307C187.092 253.922 186.467 255.338 185.593 256.434C184.134 258.264 183.713 258.885 184.138 259.466C184.658 260.176 185.61 260.098 186.401 259.562C187.289 258.963 190.383 254.356 191.365 249.236C191.542 248.326 192.175 247.272 192.437 246.533C192.796 245.527 192.572 244.867 193.14 244.183C194.841 242.129 197.268 241.423 198.131 239.933ZM69.818 216.801C68.907 217.026 69.754 217.973 69.954 218.159C70.155 218.346 70.377 218.301 70.559 218.43C71.263 218.94 71.722 219.815 72.193 219.88C74.002 220.129 74.448 218.788 73.275 217.626C72.56 216.919 71.224 216.451 69.819 216.801L69.818 216.801ZM235.495 187.651L233.741 191.07L242.162 195.392L249.024 207.07L251.049 203.124L246.581 195.546L255.331 194.78L257.417 190.715L243.837 191.932L235.495 187.651ZM44.979 181.86L41.538 183.592L46.143 192.738L41.343 195.156L37.741 188.002L34.353 189.709L37.955 196.861L34.355 198.675L29.883 189.794L26.442 191.526L32.655 203.863L51.324 194.463L44.979 181.86ZM257.617 178.085L241.429 172.727L240.213 176.402L256.401 181.759L254.526 187.423L258.183 188.633L263.14 173.656L259.483 172.446L257.617 178.085ZM220.146 224.806C221.537 223.16 222.483 221.355 223.298 220.306C223.743 219.738 224.408 219.31 224.816 218.685C225.281 217.972 225.8 218.89 226.236 218.805C227.368 218.577 228.39 217.704 228.341 216.824C228.367 216.263 227.936 215.393 226.868 214.882C224.87 213.923 223.396 218.413 222.228 218.055C221.994 217.982 221.942 216.467 221.95 216.444C221.879 215.387 221.626 214.066 220.939 212.986C220.368 212.089 219.904 212.187 219.374 211.856C218.944 211.587 218.637 211.173 218.032 211.112C216.536 210.958 215.85 212.117 215.892 213.126C215.939 214.205 216.818 216.078 216.235 216.769C215.59 217.537 214.918 217.501 214.65 216.99C214.272 216.26 214.199 214.755 213.725 214.495C213.456 214.347 212.856 214.764 212.508 215.425C212.16 216.087 212.886 217.665 212.08 217.978C211.711 218.121 211.242 217.353 210.908 217.435C209.974 217.662 211.055 220.15 210.507 220.85C209.535 222.085 209.686 222.891 210.271 224.059C210.701 224.915 211.693 226.12 212.228 227.11C212.842 228.249 213.964 228.935 213.875 229.491C213.775 230.096 213.501 229.728 213.14 230.206C212.623 230.901 214.252 234.67 216.392 235.895C216.799 236.128 217.908 236.208 218.228 235.589C218.816 234.456 216.461 233.795 216.001 232.574C215.694 231.756 217.514 229.488 218.431 227.77C218.852 226.985 219.302 225.798 220.146 224.806ZM215.611 227.894C215.248 228.054 214.8 227.186 214.155 226.572C213.223 225.688 212.024 224.567 212.115 224.372C212.269 224.038 212.106 222.657 212.465 222.715C213.08 222.82 213.692 224.436 214.067 224.94C214.678 226.021 214.993 225.33 215.302 226.595C215.479 227.315 216.088 227.683 215.611 227.894ZM216.257 223.727C215.838 223.843 215.686 224.069 215.301 223.565C214.452 222.45 214.311 220.969 214.713 220.416C215.57 219.231 215.533 221.209 215.611 221.466C215.772 222.021 216.664 223.611 216.257 223.727ZM217.543 215.539C217.846 214.509 217.507 214.27 217.79 213.813C218.148 213.235 218.976 213.381 219.592 213.91C220.17 214.409 220.574 215.266 220.174 215.758C219.725 216.316 219.036 215.655 218.731 215.951C218.365 216.306 218.506 217.209 219.106 217.149C219.616 217.101 219.959 217.668 220.095 218.259C220.152 218.506 219.92 219.057 220.012 219.279C220.145 219.599 220.774 219.68 220.931 219.991C221.081 220.29 220.596 221.203 220.06 221.156C219.224 221.086 219.372 219.447 219.026 219.101C217.204 217.283 217.405 216.001 217.543 215.539ZM217.937 222.895C217.937 222.895 217.688 222.64 217.667 222.632C217.064 222.418 217.157 220.726 217.222 220.666C218.076 219.936 219.388 223.112 217.937 222.895ZM72.033 220.642C70.712 219.954 69.74 219.426 69.467 218.629C69.445 218.563 69.191 217.733 68.905 217.61C68.619 217.485 68.527 217.967 68.036 217.579C67.545 217.194 65.874 215.449 64.433 214.909C63.827 214.681 63.102 213.442 62.36 213.356C61.637 213.273 59.777 213.874 60.491 215.44C60.804 216.124 62.77 215.939 64.243 217.115C64.96 217.689 65.742 217.33 65.985 218.337C66.083 218.738 65.878 218.693 65.663 218.715C65.537 218.727 62.898 217.493 60.497 217.004C58.822 216.664 57.336 216.397 56.778 217.931C56.658 218.26 56.993 219.518 56.015 219.205C55.09 218.907 53.58 218.726 53.008 219.189C52.797 219.362 52.107 220.091 51.948 220.302C51.224 221.283 52.527 222.141 52.159 222.46C51.996 222.601 51.053 221.949 50.191 221.783C49.612 221.672 48.976 222.288 48.741 222.605C48.38 223.096 48.755 223.209 49.648 224.04C51.077 225.371 51.7 225.6 53.897 226.629C54.343 226.838 55.194 227.376 55.493 227.855C55.823 228.382 55.123 228.835 54.464 228.501C53.121 227.831 47.397 225.063 48.16 228.273C48.343 229.05 49.496 230.072 49.91 230.272C50.372 230.491 51.786 230.665 51.878 231.382C51.978 232.184 49.8 232.888 50.207 234.216C50.469 235.078 50.96 235.726 51.521 235.44C52.42 234.982 54.042 232.989 54.527 233.024C55.959 233.13 58.089 236.492 59.56 235.657C61.275 234.686 61.057 233.39 60.519 233.031C59.554 232.386 57.9 231.583 57.162 230.827C56.873 230.527 57.433 230.106 57.899 229.835C59.024 229.175 60.703 231.802 62.369 233.198C63.618 234.24 63.339 234.36 64.088 235.104C65.142 236.153 66.833 235.831 67.349 234.01C67.545 233.318 64.231 230.82 62.965 229.971C61.368 228.901 60.436 228.639 60.406 227.817C60.376 226.899 61.494 227.544 61.52 227.568C62.936 228.855 69.512 229.507 69.182 225.326C69.068 223.901 70.261 223.76 68.904 222.732C68.785 222.64 67.274 221.831 67.177 221.412C67.083 221.013 67.724 220.317 68.42 220.792C69.371 221.443 70.773 222.761 70.975 222.858C72.937 223.832 74.367 221.855 72.034 220.642L72.033 220.642ZM59.447 219.12C59.663 218.22 63.678 219.033 64.077 219.7C64.345 220.149 63.874 220.473 62.865 220.369C61.382 220.212 59.237 219.996 59.447 219.12ZM53.849 221.55C53.691 220.424 55.935 220.665 56.287 221.006C56.938 221.633 54.025 222.755 53.849 221.55ZM60.293 223.661C59.196 224.482 58.787 225.558 58.379 225.515C57.767 225.45 57.278 224.939 56.724 224.704C55.741 224.291 54.839 224.059 54.737 223.822C54.524 223.316 55.207 223.721 55.688 223.361C57.401 222.076 58.143 221.28 58.882 221.425C59.646 221.575 59.98 221.899 60.429 221.969C61.33 222.11 61.908 221.921 61.864 222.1C61.827 222.252 61.151 223.019 60.293 223.661ZM65.816 225.972C66.123 226.189 65.711 226.464 65.132 226.631C64.694 226.758 61.939 227.02 61.851 226.265C61.785 225.734 62.98 224.275 64.308 223.789C64.714 223.498 64.966 222.728 65.352 222.565C65.978 222.273 67.01 223.186 66.885 223.379C66.761 223.57 65.818 223.83 65.627 224.426C65.428 225.044 65.29 225.598 65.816 225.972ZM67.827 212.343C67.827 212.343 67.049 211.732 66.665 211.675C66.211 211.559 66.16 211.841 65.75 211.879C65.323 211.831 65.04 212.157 64.897 212.496C64.524 213.38 65.449 214.455 66.978 215.178C68.833 216.051 69.298 213.357 67.827 212.343ZM229.979 230.174C229.421 229.389 229.668 229.3 229.372 229.032C228.786 228.503 228.262 228.567 228.279 228.287C228.331 227.389 229.432 226.68 229.611 226.45C229.895 226.084 230.718 225.365 230.873 224.646C231.172 223.25 229.077 223.067 228.548 223.371C228.093 223.635 226.777 226.254 225.802 227.369C225.433 227.795 225.114 227.711 224.878 227.496C224.064 226.759 226.546 224.393 225.688 223.618C224.418 222.47 223.124 222.908 222.109 224.354C222.109 224.354 220.929 226.205 219.714 227.722C218.692 228.995 218.176 231.417 219.303 231.863C220.507 232.339 221.468 231.22 221.714 229.912C221.795 229.468 221.654 229.417 221.568 229.035C221.462 228.564 221.829 228.371 221.823 228.105C221.803 227.312 221.731 226.856 222.338 226.915C222.565 226.939 223.08 227.862 223.196 228.122C223.413 228.613 223.634 229.468 223.403 230.062C222.632 232.046 221.5 234 222.326 235.053C222.516 235.294 223.708 235.401 224.15 235.17C224.653 234.903 224.549 234.422 224.872 233.372C224.999 232.966 225.823 232.48 225.957 232.127C226.195 231.495 226.204 230.394 226.544 230.471C227.226 230.627 228.174 231.977 228.37 233.486C228.488 234.391 228.368 235.42 227.907 235.771C227.735 235.9 226.942 236.975 227.572 237.716C228.295 238.563 229.113 238.435 229.54 238.2C231.423 237.182 230.941 235.114 230.812 232.96C230.744 231.826 230.317 230.65 229.979 230.174ZM147.378 143.496L175.352 164.472L175.352 155.642L147.378 134.66L147.378 143.496ZM147.378 121.077L175.352 142.059L175.352 133.216L147.378 112.241L147.378 121.077ZM141.737 54.5143C93.57 54.5989 54.603 93.5646 54.515 141.73C54.603 189.903 93.57 228.858 141.737 228.948C189.905 228.859 228.863 189.903 228.954 141.73C228.864 93.5646 189.905 54.599 141.737 54.5143ZM196.811 135.722C198.18 136.748 198.985 138.36 198.985 140.071C198.985 144.55 193.871 147.107 190.287 144.419L186.643 141.686L186.643 150.522L196.811 158.148C198.179 159.175 198.985 160.786 198.985 162.497C198.985 166.976 193.871 169.534 190.287 166.846L186.643 164.113L186.643 172.949L196.811 180.575C198.179 181.601 198.985 183.212 198.985 184.923C198.985 189.403 193.871 191.96 190.287 189.272L147.378 157.087L147.378 165.916L191.359 198.905C192.727 199.932 193.533 201.542 193.533 203.254C193.533 207.733 188.419 210.29 184.835 207.602L147.378 179.507L147.378 209.501C147.378 212.617 144.852 215.143 141.736 215.143C138.62 215.143 136.093 212.617 136.093 209.501L136.093 179.507L98.636 207.602C95.053 210.29 89.939 207.733 89.939 203.254C89.939 201.543 90.744 199.932 92.113 198.905L136.093 165.916L136.093 157.087L93.188 189.269C89.603 191.958 84.486 189.4 84.486 184.919C84.486 183.206 85.293 181.594 86.663 180.567L96.836 172.942L96.836 164.106L93.184 166.845C89.601 169.533 84.486 166.976 84.486 162.496C84.486 160.786 85.292 159.175 86.66 158.148L96.835 150.516L96.835 141.686L93.185 144.423C89.6 147.11 84.486 144.552 84.486 140.072C84.486 138.36 85.293 136.748 86.662 135.721L136.093 98.6513L136.093 89.8212L93.184 122.006C89.6 124.694 84.486 122.137 84.486 117.657C84.486 115.946 85.292 114.336 86.66 113.309L96.835 105.676L96.835 93.0085C96.835 89.8929 99.362 87.3664 102.478 87.3664C105.594 87.3664 108.12 89.8928 108.12 93.0085L108.12 97.2065L136.093 76.2312L136.093 65.5911C136.093 62.4751 138.62 59.949 141.736 59.949C144.852 59.949 147.378 62.475 147.378 65.5911L147.378 76.2312L175.351 97.2135L175.351 93.0122C175.351 89.8941 177.879 87.3664 180.997 87.3664C184.115 87.3664 186.643 89.8941 186.643 93.0122L186.643 105.676L196.811 113.302C198.179 114.329 198.985 115.94 198.985 117.651C198.985 122.131 193.871 124.687 190.287 122L147.378 89.8213L147.378 98.6513L196.81 135.722L196.811 135.722ZM108.12 142.059L136.094 121.077L136.094 112.241L108.12 133.222L108.12 142.059ZM108.12 164.479L136.094 143.496L136.094 134.66L108.12 155.649L108.12 164.479Z"   fill="#A32035" >
</path>
</svg>
